<?xml version="1.0" encoding="utf-8"?>
<!-- Generator: Adobe Illustrator 21.1.0, SVG Export Plug-In . SVG Version: 6.00 Build 0)  -->
<svg version="1.1" id="Слой_1" xmlns="http://www.w3.org/2000/svg" xmlns:xlink="http://www.w3.org/1999/xlink" x="0px" y="0px"
	 viewBox="0 0 277.1 66.5" style="enable-background:new 0 0 277.1 66.5;" xml:space="preserve">
<style type="text/css">
	.st0{fill:#00AFCA;}
	.st1{fill:#003580;}
	.st2{fill:#DD1A32;}
	.st3{fill:#FFFFFF;}
</style>
<title>logo</title>
<g id="logo">
	<path class="st0" d="M64.3,45c-0.6,1.5-1.3,3-2.2,4.4c-0.9,1.4-1.9,2.8-3.1,4c-2.4,2.4-5.3,4.3-8.5,5.6c-3.2,1.2-6.6,1.9-10,2.1
		c-1.7,0.1-3.4,0.1-5.1,0c-1.8-0.1-3.5-0.4-5.2-0.8c-7-1.7-13.1-5.8-17.3-11.7c-4.2-5.9-6.2-13.1-5.5-20.4c0.6-7.2,3.8-14,9.1-19
		c5.1-4.9,11.7-8.1,18.7-9c3.4-0.5,6.9-0.5,10.3,0c3.4,0.5,6.7,1.5,9.8,3.1c3,1.6,5.7,3.8,7.9,6.4c2.1,2.5,3.9,5.4,5.1,8.4
		c-1.8-2.7-3.9-5.2-6.3-7.3c-2.3-2.1-5-3.8-7.9-4.9c-5.7-2.3-12.2-2.4-18.2-1.2C30,6,24.5,9,20.3,13.3c-4.1,4.2-6.6,9.7-7.1,15.6
		c-0.6,5.9,0.9,11.7,4.2,16.6c1.6,2.5,3.6,4.6,6,6.4c2.4,1.7,5,3.1,7.9,4c1.4,0.5,2.9,0.8,4.4,1c1.5,0.2,3.1,0.3,4.6,0.4
		c3.1,0.1,6.2-0.2,9.2-1c1.5-0.4,2.9-0.9,4.3-1.6c1.4-0.7,2.7-1.5,4-2.5C60.4,50.2,62.6,47.8,64.3,45z"/>
	<path class="st1" d="M14.7,51.5c1.9,2.3,4.2,4.4,6.7,6c2.5,1.6,5.2,2.7,8.1,3.4c2.8,0.7,5.7,1.2,8.7,1.2c2.8,0.2,5.7-0.1,8.4-0.9
		c5.4-1.5,10.3-4.5,13.9-8.8c3.6-4.2,5.8-9.4,6.3-14.9c0.7-8.4-2.4-16.6-8.5-22.4c-2-1.9-4.3-3.5-6.8-4.6c-1.3-0.6-2.6-1.1-3.9-1.4
		c-1.4-0.4-2.8-0.6-4.2-0.8c-2.9-0.3-5.8-0.3-8.7,0.2c-2.9,0.4-5.7,1.3-8.3,2.7c-1.3,0.7-2.6,1.5-3.8,2.4c-1.2,0.9-2.3,1.9-3.4,3.1
		c1.6-2.7,3.7-5,6.3-6.9C28,8,30.9,6.6,34,5.7c3.1-0.9,6.3-1.3,9.5-1.3c3.3,0,6.6,0.6,9.7,1.8c6.3,2.4,11.6,6.9,15,12.7
		c3.5,5.8,5.1,12.6,4.5,19.3c-0.3,3.4-1.2,6.7-2.6,9.8C66,57.3,57.6,64,47.5,66c-3.2,0.6-6.6,0.7-9.8,0.2c-1.6-0.2-3.1-0.5-4.7-0.9
		c-1.5-0.4-3.1-0.9-4.6-1.5c-3-1.2-5.7-2.8-8.1-4.9C18,56.8,16.1,54.3,14.7,51.5z"/>
	<path class="st2" d="M61,7.6c2.8-0.2,5.7,0,8.5,0.6c1.4,0.3,2.8,0.7,4.2,1.4c1.4,0.6,2.7,1.5,3.8,2.5c1.2,1.1,2.1,2.5,2.7,4.1
		c0.6,1.6,0.8,3.2,0.6,4.9c-0.4,3.1-1.5,6.1-3.3,8.7c-1.7,2.5-3.6,4.7-5.8,6.8c-2.1,2-4.4,3.8-6.8,5.5c-4.8,3.2-10,5.9-15.4,8
		c-5.4,2.1-11,3.6-16.7,4.5c-5.8,1-11.7,1-17.4,0.1c-1.5-0.2-2.9-0.6-4.4-1.1C9.4,53,8,52.4,6.7,51.7c-1.4-0.8-2.7-1.7-3.8-2.9
		c-1.1-1.2-2-2.6-2.5-4.2c-0.5-1.5-0.6-3.1-0.3-4.7c0.2-1.5,0.7-2.9,1.4-4.3c1.4-2.5,3.2-4.8,5.3-6.6c-1.6,2.2-2.9,4.7-3.8,7.3
		c-0.9,2.4-0.8,5,0.2,7.3c1.1,2.1,3,3.7,5.2,4.5c2.4,1,4.9,1.5,7.4,1.7c5.3,0.4,10.6,0.1,15.8-1c5.3-1,10.5-2.5,15.5-4.5
		c5-1.9,9.8-4.3,14.4-7.1c4.5-2.7,8.6-6.1,11.9-10.1c1.6-1.9,2.7-4.1,3.3-6.5c0.5-2.3-0.1-4.7-1.5-6.5c-1.7-2-3.9-3.5-6.3-4.3
		c-1.3-0.5-2.6-0.9-3.9-1.3C63.8,8.1,62.4,7.9,61,7.6z"/>
</g>
<g id="logo-name">
	<path class="st3" d="M110.4,45.9c-0.9,0.8-2,1.5-3.1,1.9c-1.1,0.4-2.3,0.7-3.6,0.7c-1.5,0-3-0.5-4.3-1.4c-1.3-0.9-2.4-2.2-3.1-3.7
		c-2.2,0-4.3-0.6-6.2-1.7c-3.7-2.1-5.9-6.1-5.9-10.3c0-4.3,2.3-8.3,6.1-10.3c4-2.1,8.7-2.1,12.7,0c5.7,3.1,7.8,10.3,4.7,16
		c-1.3,2.5-3.5,4.4-6.1,5.4c0.6,0.8,1.6,1.4,2.6,1.4c0.6,0,1.3-0.2,1.8-0.5c0.7-0.3,1.5-0.8,2.1-1.3L110.4,45.9z M91.4,34.9
		c0.5,1,1.3,1.9,2.3,2.5c0.9,0.6,2,0.9,3.2,0.9c1.1,0,2.2-0.3,3.1-0.9c1-0.6,1.7-1.5,2.3-2.5c1.1-2.2,1.1-4.7,0-6.9
		c-0.5-1-1.3-1.9-2.3-2.5c-0.9-0.6-2-0.9-3.2-0.9c-1.1,0-2.2,0.3-3.2,0.9c-1,0.6-1.8,1.4-2.3,2.5C90.2,30.1,90.2,32.7,91.4,34.9
		L91.4,34.9z"/>
	<path class="st3" d="M126.1,26.6c1.4,1.2,2.1,2.9,2.1,4.8V43h-5.8v-2c-1.3,1.6-3.3,2.4-5.4,2.3c-1.6,0.1-3.2-0.5-4.5-1.5
		c-1.1-1-1.7-2.5-1.6-4c-0.1-1.5,0.6-3,1.8-4c1.5-1,3.3-1.5,5.1-1.5h4.6v-0.2c0.1-0.8-0.3-1.5-0.9-2c-0.7-0.5-1.6-0.7-2.5-0.7
		c-0.9,0-1.7,0.1-2.5,0.4c-1,0.3-1.9,0.6-2.8,1.1l-1.6-4c1.3-0.6,2.7-1.1,4.2-1.5c1.4-0.3,2.7-0.5,4.1-0.5
		C122.5,24.7,124.5,25.4,126.1,26.6z M121.2,38.6c0.6-0.4,1.1-1,1.3-1.7v-1.6h-3.5c-1.6,0-2.5,0.6-2.5,1.8c0,0.6,0.2,1.1,0.6,1.5
		c0.5,0.4,1.1,0.6,1.8,0.5C119.7,39.3,120.5,39,121.2,38.6L121.2,38.6z"/>
	<path class="st3" d="M131.2,25.1h15.6v3.6l-8.6,9.8h8.9v4.5h-16.2v-3.5l8.6-9.8h-8.3V25.1z"/>
	<path class="st3" d="M150.3,19.9h17.3v4.8h-11.2v5.1h10.3v4.8h-10.4V43h-6L150.3,19.9z"/>
	<path class="st3" d="M175.4,17.8c1.2,1.3,1.2,3.2,0,4.5c-1.2,1.2-3.2,1.2-4.4,0c-1.2-1.3-1.2-3.2,0-4.5
		C172.2,16.7,174.1,16.7,175.4,17.8z M170.3,25.1h5.8V43h-5.8V25.1z"/>
	<path class="st3" d="M197,26.8c1.2,1.4,1.9,3.2,1.8,5V43H193v-9.5c0.1-0.9-0.2-1.7-0.8-2.4c-0.6-0.6-1.4-0.9-2.2-0.9
		c-0.9,0-1.8,0.4-2.4,1c-0.6,0.7-1,1.5-1.1,2.4V43h-5.9V25.1h5.9v2.9c0.6-1,1.4-1.8,2.4-2.3c1.1-0.5,2.2-0.8,3.4-0.8
		C194.1,24.9,195.8,25.5,197,26.8z"/>
	<path class="st3" d="M200.3,19.9H220v5h-6.9V43h-6V24.9h-6.9V19.9z"/>
	<path class="st3" d="M234.9,27.5c1.6,2,2.5,4.5,2.3,7c0,0.5,0,0.8,0,1h-12.3c0.2,0.9,0.7,1.7,1.5,2.3c0.7,0.6,1.6,0.8,2.6,0.8
		c0.8,0,1.5-0.2,2.2-0.5c0.7-0.3,1.4-0.8,2-1.3l3.1,3.1c-0.9,1-2.1,1.8-3.3,2.3c-1.4,0.6-2.9,0.8-4.4,0.8c-1.7,0-3.4-0.3-5-1.1
		c-1.4-0.7-2.5-1.8-3.3-3.2c-0.8-1.4-1.2-3.1-1.2-4.7c0-1.7,0.4-3.3,1.1-4.8c0.8-1.4,1.9-2.5,3.3-3.2c1.5-0.8,3.2-1.2,4.9-1.1
		C230.7,24.8,233.1,25.7,234.9,27.5z M231.5,32.5c0-0.9-0.3-1.8-0.9-2.5c-1.3-1.2-3.4-1.2-4.7,0c-0.7,0.7-1.1,1.6-1.2,2.5
		L231.5,32.5z"/>
	<path class="st3" d="M248.2,29.8c-1,0-2,0.4-2.6,1.2c-0.7,0.9-1,2-1,3.1c-0.1,1.1,0.3,2.2,1,3.1c0.6,0.8,1.6,1.2,2.6,1.2
		c1.5,0.1,2.8-0.7,3.5-2l4.3,2.5c-0.7,1.4-1.8,2.5-3.2,3.2c-1.5,0.8-3.2,1.2-4.9,1.1c-1.7,0-3.3-0.4-4.8-1.1
		c-1.4-0.7-2.5-1.8-3.2-3.2c-0.8-1.5-1.2-3.2-1.1-4.8c0-1.7,0.4-3.3,1.1-4.8c0.8-1.4,1.9-2.5,3.2-3.2c3-1.5,6.6-1.5,9.6,0
		c1.4,0.7,2.5,1.8,3.2,3.1l-4.3,2.5C251,30.5,249.6,29.8,248.2,29.8z"/>
	<path class="st3" d="M275.4,26.8c1.2,1.4,1.9,3.2,1.8,5V43h-5.9v-9.5c0-0.9-0.2-1.7-0.8-2.4c-0.6-0.6-1.4-0.9-2.2-0.9
		c-1,0-1.9,0.4-2.5,1.1c-0.7,0.8-1,1.8-0.9,2.9V43h-5.9V18.5h5.9v9.6c0.6-1,1.4-1.8,2.5-2.3c1.1-0.5,2.2-0.8,3.4-0.8
		C272.4,24.8,274.1,25.5,275.4,26.8z"/>
</g>
</svg>
