<svg id="Слой_1" data-name="Слой 1" xmlns="http://www.w3.org/2000/svg" viewBox="0 0 277.14 66.49"><defs><style>.cls-1{fill:#00afca;}.cls-2{fill:#003580;}.cls-3{fill:#dd1a32;}</style></defs><title>logo</title><g id="logo"><path class="cls-1" d="M66.41,46.95a26.63,26.63,0,0,1-2.17,4.43,24.68,24.68,0,0,1-3.09,4,24.34,24.34,0,0,1-8.49,5.59,34.16,34.16,0,0,1-10,2.12,38.81,38.81,0,0,1-5.12,0,29.51,29.51,0,0,1-5.21-.76A30,30,0,0,1,15,50.63,30.61,30.61,0,0,1,9.47,30.26a30.07,30.07,0,0,1,9.06-19,33.3,33.3,0,0,1,18.73-9,37.35,37.35,0,0,1,10.29,0,29.64,29.64,0,0,1,9.79,3.09,26.77,26.77,0,0,1,7.86,6.37,32.52,32.52,0,0,1,5.13,8.43,38.26,38.26,0,0,0-6.25-7.34A26.51,26.51,0,0,0,56.16,7.9C50.44,5.61,44,5.54,38,6.73a30.25,30.25,0,0,0-15.52,8.45,25.64,25.64,0,0,0-7.07,15.61,25.19,25.19,0,0,0,4.22,16.59,25.7,25.7,0,0,0,6,6.38,27.68,27.68,0,0,0,7.87,4,25,25,0,0,0,4.38,1c1.5.2,3.09.3,4.63.36a31.48,31.48,0,0,0,9.17-1,24.23,24.23,0,0,0,4.34-1.59,24.76,24.76,0,0,0,4-2.46A27.31,27.31,0,0,0,66.41,46.95Z" transform="translate(-2.15 -1.91)"/><path class="cls-2" d="M16.82,53.42a28.34,28.34,0,0,0,6.7,6,27.88,27.88,0,0,0,8.07,3.44,39.09,39.09,0,0,0,8.67,1.24,27.2,27.2,0,0,0,8.41-.87,27.93,27.93,0,0,0,13.92-8.76A26.37,26.37,0,0,0,68.93,39.6a27.8,27.8,0,0,0-8.5-22.44,25.68,25.68,0,0,0-6.85-4.65,25.28,25.28,0,0,0-3.93-1.43,28.67,28.67,0,0,0-4.18-.75,32.54,32.54,0,0,0-8.66.19,27.1,27.1,0,0,0-8.34,2.67,23.24,23.24,0,0,0-3.77,2.39,25.77,25.77,0,0,0-3.37,3.06,22.8,22.8,0,0,1,6.26-6.88,27.83,27.83,0,0,1,8.57-4.14,33,33,0,0,1,9.54-1.26,27.61,27.61,0,0,1,9.69,1.76,30,30,0,0,1,15,12.69,32,32,0,0,1,4.49,19.3,30.91,30.91,0,0,1-2.55,9.76,31.5,31.5,0,0,1-22.65,18,29.5,29.5,0,0,1-9.81.22,46.19,46.19,0,0,1-4.7-.89,38.2,38.2,0,0,1-4.56-1.48,28.65,28.65,0,0,1-8.14-4.93A24.65,24.65,0,0,1,16.82,53.42Z" transform="translate(-2.15 -1.91)"/><path class="cls-3" d="M63.17,9.55a30.89,30.89,0,0,1,8.47.55,18.44,18.44,0,0,1,4.17,1.37A14.15,14.15,0,0,1,79.64,14a10.72,10.72,0,0,1,2.65,4.07,11.42,11.42,0,0,1,.59,4.9,19.48,19.48,0,0,1-3.33,8.69,37.73,37.73,0,0,1-5.81,6.76,55.36,55.36,0,0,1-6.85,5.45,76.48,76.48,0,0,1-15.36,8,80.34,80.34,0,0,1-16.68,4.49,54.65,54.65,0,0,1-17.45.1,30.58,30.58,0,0,1-4.35-1.07,21.72,21.72,0,0,1-4.21-1.81,15.57,15.57,0,0,1-3.75-2.88,11.11,11.11,0,0,1-2.48-4.16,10.47,10.47,0,0,1-.35-4.72,13.35,13.35,0,0,1,1.4-4.27A23.39,23.39,0,0,1,9,30.91a27.5,27.5,0,0,0-3.8,7.27,9.82,9.82,0,0,0,.17,7.3A9.87,9.87,0,0,0,10.62,50a25,25,0,0,0,7.43,1.73,57.56,57.56,0,0,0,15.84-1,89.38,89.38,0,0,0,15.48-4.48,83.75,83.75,0,0,0,14.41-7.13A46.81,46.81,0,0,0,75.72,29,16.32,16.32,0,0,0,79,22.47,7.67,7.67,0,0,0,77.48,16a14.87,14.87,0,0,0-6.32-4.32,27.55,27.55,0,0,0-3.9-1.26C65.92,10,64.55,9.81,63.17,9.55Z" transform="translate(-2.15 -1.91)"/></g><g id="logo-name"><path class="cls-1" d="M112.54,47.8a9.88,9.88,0,0,1-3.14,1.88,10.06,10.06,0,0,1-3.57.69A7.34,7.34,0,0,1,101.54,49a9.44,9.44,0,0,1-3.1-3.72,12.72,12.72,0,0,1-6.16-1.7,11.71,11.71,0,0,1-5.86-10.32A11.48,11.48,0,0,1,92.53,23a13.89,13.89,0,0,1,12.74,0,11.82,11.82,0,0,1-1.4,21.4,3.46,3.46,0,0,0,2.6,1.42,4.6,4.6,0,0,0,1.83-.46,11.81,11.81,0,0,0,2.12-1.25Zm-19-11a6.7,6.7,0,0,0,2.32,2.47,5.85,5.85,0,0,0,3.16.91,5.77,5.77,0,0,0,3.14-.91,6.36,6.36,0,0,0,2.25-2.47,7.67,7.67,0,0,0,0-6.92,6.25,6.25,0,0,0-2.25-2.45A5.85,5.85,0,0,0,99,26.53a6,6,0,0,0-3.18.89,6.41,6.41,0,0,0-2.32,2.45,7.35,7.35,0,0,0,0,6.92Z" transform="translate(-2.15 -1.91)"/><path class="cls-1" d="M128.28,28.52a5.94,5.94,0,0,1,2.07,4.76V44.87h-5.76v-2a6.4,6.4,0,0,1-5.37,2.27,6.26,6.26,0,0,1-4.46-1.53,5.27,5.27,0,0,1-1.63-4,4.78,4.78,0,0,1,1.76-4,8,8,0,0,1,5.05-1.45h4.64V34a2.37,2.37,0,0,0-.87-2,4,4,0,0,0-2.52-.69,10.18,10.18,0,0,0-2.52.36,15,15,0,0,0-2.82,1.05l-1.61-4a23.14,23.14,0,0,1,4.17-1.47,17.66,17.66,0,0,1,4.13-.48A8.73,8.73,0,0,1,128.28,28.52Zm-4.94,12a2.78,2.78,0,0,0,1.25-1.66V37.3H121.1q-2.47,0-2.47,1.84a1.82,1.82,0,0,0,.64,1.46,2.64,2.64,0,0,0,1.76.54A4.13,4.13,0,0,0,123.34,40.51Z" transform="translate(-2.15 -1.91)"/><path class="cls-1" d="M133.35,27.06l15.61,0v3.56l-8.56,9.75h8.89v4.48H133.05V41.32l8.56-9.75h-8.26Z" transform="translate(-2.15 -1.91)"/><path class="cls-2" d="M152.45,21.79H169.7l0,4.81h-11.2v5.14h10.34v4.81H158.47v8.33h-6Z" transform="translate(-2.15 -1.91)"/><path class="cls-2" d="M177.52,19.73a3.33,3.33,0,0,1,0,4.49,3.22,3.22,0,0,1-4.45,0,3.33,3.33,0,0,1,0-4.49,3.27,3.27,0,0,1,4.45,0Zm-5.09,7.33h5.83V44.87h-5.83Z" transform="translate(-2.15 -1.91)"/><path class="cls-2" d="M199.19,28.67a6.9,6.9,0,0,1,1.76,5V44.87h-5.83V35.32a3.34,3.34,0,0,0-.82-2.39,2.89,2.89,0,0,0-2.21-.87,3.38,3.38,0,0,0-2.39,1,3.88,3.88,0,0,0-1.1,2.44v9.42h-5.86V27.06h5.86V30a6.34,6.34,0,0,1,2.45-2.34,7.27,7.27,0,0,1,3.44-.79A6.19,6.19,0,0,1,199.19,28.67Z" transform="translate(-2.15 -1.91)"/><path class="cls-3" d="M202.4,21.79h19.79v5h-6.92V44.87h-6V26.76H202.4Z" transform="translate(-2.15 -1.91)"/><path class="cls-3" d="M237,29.43a10.08,10.08,0,0,1,2.34,7q0,.69,0,1.05H227a4.28,4.28,0,0,0,1.48,2.32,4.1,4.1,0,0,0,2.57.81,5.55,5.55,0,0,0,2.22-.46,6.26,6.26,0,0,0,2-1.35l3.06,3.06a9,9,0,0,1-3.34,2.35,11.54,11.54,0,0,1-4.43.81,10.65,10.65,0,0,1-5-1.12,7.77,7.77,0,0,1-3.28-3.16A9.59,9.59,0,0,1,221.07,36a9.83,9.83,0,0,1,1.15-4.82A8,8,0,0,1,225.48,28a10.11,10.11,0,0,1,4.87-1.14A8.58,8.58,0,0,1,237,29.43Zm-3.36,5a3.43,3.43,0,0,0-.91-2.49,3.44,3.44,0,0,0-4.71,0,4.58,4.58,0,0,0-1.24,2.5Z" transform="translate(-2.15 -1.91)"/><path class="cls-3" d="M250.38,31.7a3.17,3.17,0,0,0-2.57,1.2,4.74,4.74,0,0,0-1,3.11,4.73,4.73,0,0,0,1,3.13,3.19,3.19,0,0,0,2.57,1.19,3.64,3.64,0,0,0,3.49-2l4.31,2.47A7.33,7.33,0,0,1,255,44a10.39,10.39,0,0,1-4.94,1.12A10,10,0,0,1,245.27,44a7.87,7.87,0,0,1-3.21-3.16A9.59,9.59,0,0,1,240.93,36a9.83,9.83,0,0,1,1.15-4.82A8,8,0,0,1,245.32,28a10.78,10.78,0,0,1,9.57,0,8,8,0,0,1,3.23,3.11l-4.25,2.47A4,4,0,0,0,250.38,31.7Z" transform="translate(-2.15 -1.91)"/><path class="cls-3" d="M277.53,28.67a6.9,6.9,0,0,1,1.76,5V44.87h-5.86V35.32a3.38,3.38,0,0,0-.81-2.39,2.88,2.88,0,0,0-2.22-.87,3.27,3.27,0,0,0-2.55,1.14,4.29,4.29,0,0,0-.94,2.88v8.79H261V20.44h5.86V30a6.32,6.32,0,0,1,2.45-2.34,7.26,7.26,0,0,1,3.44-.79A6.23,6.23,0,0,1,277.53,28.67Z" transform="translate(-2.15 -1.91)"/></g></svg>